<svg width="16" height="14" viewBox="0 0 16 14" fill="none" xmlns="http://www.w3.org/2000/svg">
<path fill-rule="evenodd" clip-rule="evenodd" d="M7.9995 12.2715C4.93345 10.5252 3.22342 8.78955 2.39651 7.28361C1.55017 5.74228 1.62401 4.4441 2.09365 3.52273C3.05896 1.62892 5.80403 1.02333 7.47654 3.13865L7.99946 3.80001L8.52242 3.13868C10.1952 1.02327 12.9404 1.62896 13.9057 3.52273C14.3754 4.44409 14.4492 5.74226 13.6028 7.28359C12.7758 8.78954 11.0657 10.5252 7.9995 12.2715ZM7.99952 1.73726C5.64671 -0.498482 2.17579 0.425546 0.905732 2.91723C0.208704 4.2847 0.199183 6.05212 1.22778 7.92536C2.24724 9.78198 4.27985 11.7417 7.677 13.6194L7.99949 13.7976L8.32198 13.6194C11.7193 11.7417 13.752 9.78199 14.7715 7.92537C15.8002 6.05214 15.7907 4.28472 15.0936 2.91723C13.8236 0.425498 10.3525 -0.498448 7.99952 1.73726Z" fill="#FF3F3A"/>
</svg>
